<svg
  xmlns="http://www.w3.org/2000/svg"
  xml:space="preserve"
  viewBox="0 0 1496 1496"
>
  <path
    fill="#f6d738"
    d="M324.667 748c0-233.801 189.532-423.333 423.333-423.333 233.801 0 423.333 189.532 423.333 423.333 0 233.801-189.532 423.333-423.333 423.333-233.801 0-423.333-189.532-423.333-423.333"
  />
  <path
    fill="#f3cc30"
    d="M388.723 748c0-198.423 160.854-359.277 359.277-359.277 198.423 0 359.277 160.854 359.277 359.277 0 198.423-160.854 359.277-359.277 359.277-198.423 0-359.277-160.854-359.277-359.277"
  />
  <path
    fill="#edbd31"
    d="M935.97 441.356c35.78 55.856 56.523 122.267 56.523 193.523 0 198.424-160.854 359.277-359.277 359.277-68.912 0-133.284-19.417-187.97-53.056C509.1 1040.784 620.834 1106.853 748 1106.853c198.423 0 359.277-160.853 359.277-359.277 0-129.51-68.536-243-171.306-306.22"
  />
  <path
    fill="#f7db5e"
    d="M451.659 780.873c0-175.156 141.992-317.148 317.148-317.148 102.382 0 193.416 48.526 251.401 123.819-54.764-95.073-157.41-159.079-275.008-159.079-175.156 0-317.148 141.992-317.148 317.148 0 72.776 24.53 139.811 65.75 193.331-26.807-46.535-42.143-100.51-42.143-158.07"
  />
  <path
    fill="#d49a34"
    d="M777.657 516.11v45.77c18.368 2.959 33.395 9.032 45.071 18.216 11.677 9.187 22.805 23.276 33.395 42.267l-45.538 25.456c-13.701-24.907-31.606-37.366-53.71-37.366-13.703 0-25.07 4.05-34.095 12.144-9.03 8.096-13.544 18.215-13.544 30.358 0 11.057 3.656 20.24 10.975 27.557 7.158 7.161 21.637 15.647 43.434 25.453 18.835 8.564 34.406 16.622 46.706 24.171 12.296 7.552 21.561 14.828 27.789 21.835 17.592 18.996 26.39 41.956 26.39 68.889 0 26.468-7.94 49.821-23.82 70.057-15.727 20.083-36.745 33.628-63.053 40.635v48.339h-40.866v-46.94c-30.515-4.984-53.791-15.488-69.824-31.524-16.036-16.035-27.871-40.788-35.496-74.262l51.376-10.744c7.005 23.668 15.565 40.559 25.688 50.676 10.585 9.655 24.672 14.48 42.268 14.48 17.122 0 31.445-5.525 42.968-16.58 11.364-10.896 17.048-24.989 17.048-42.27 0-15.411-4.751-27.788-14.246-37.13-4.828-4.513-11.949-9.609-21.369-15.294-9.419-5.683-21.447-11.87-36.079-18.566-30.204-13.544-50.054-25.998-59.548-37.364-15.102-16.968-22.652-37.285-22.652-60.95 0-11.211 1.788-21.639 5.371-31.294 3.58-9.65 8.757-18.406 15.53-26.272 6.771-7.858 15.14-14.67 25.105-20.433 9.961-5.756 21.25-10.275 33.86-13.544v-45.77h40.866"
  />
</svg>
